<svg width="19" height="19" viewBox="0 0 19 19" fill="none" xmlns="http://www.w3.org/2000/svg">
<path d="M6.73077 9.5003C6.73077 9.5003 6.90663 7.66896 8.14464 6.43095C9.38264 5.19295 11.214 5.01709 11.214 5.01709C11.214 5.01709 11.0381 6.84843 9.80012 8.08644C8.56212 9.32444 6.73077 9.5003 6.73077 9.5003Z" fill="#4FC16E"/>
<path d="M6.73077 9.5003L11.214 5.01709C11.214 5.01709 11.0381 6.84843 9.80012 8.08644C8.56212 9.32444 6.73077 9.5003 6.73077 9.5003Z" fill="#369151"/>
<path d="M6.73077 9.5C6.73077 9.5 6.90663 11.3313 8.14464 12.5693C9.38264 13.8073 11.214 13.9832 11.214 13.9832C11.214 13.9832 11.0381 12.1519 9.80012 10.9139C8.56212 9.67586 6.73077 9.5 6.73077 9.5Z" fill="#4FC16E"/>
<path d="M6.73077 9.5C6.73077 9.5 6.90663 11.3313 8.14464 12.5693C9.38264 13.8073 11.214 13.9832 11.214 13.9832L6.73077 9.5Z" fill="#369151"/>
<path d="M6.73077 9.49996C6.73077 9.49996 8.53462 8.01221 10.7598 8.01221C12.9849 8.01221 14.7888 9.49996 14.7888 9.49996C14.7888 9.49996 12.9849 10.9877 10.7598 10.9877C8.53462 10.9877 6.73077 9.49996 6.73077 9.49996Z" fill="#4FC16E"/>
<path d="M6.73077 9.5H14.7888C14.7888 9.5 12.9849 10.9877 10.7598 10.9877C8.53462 10.9877 6.73077 9.5 6.73077 9.5Z" fill="#369151"/>
<path d="M7.70543 12.6667C7.06147 10.5556 7.06147 8.44448 7.70543 6.33333C7.06147 4.22226 7.06147 2.11115 7.70543 0H6.08283H4.46022C5.10418 2.11115 5.10418 4.22222 4.46022 6.33333C5.10418 8.44448 5.10418 10.5556 4.46022 12.6667C5.10418 14.7778 5.10418 16.8889 4.46022 19H6.08283H7.70543C7.06143 16.8889 7.06143 14.7778 7.70543 12.6667Z" fill="#369151"/>
<path d="M7.70553 12.6667C7.06158 10.5556 7.06158 8.44448 7.70553 6.33333C7.06158 4.22226 7.06158 2.11115 7.70553 0H6.08293V19H7.70553C7.06154 16.8889 7.06154 14.7778 7.70553 12.6667Z" fill="#4FC16E"/>
<path d="M7.39795 6.89014H4.76794C4.46053 6.89014 4.2113 6.64091 4.2113 6.3335C4.2113 6.02608 4.46053 5.77686 4.76794 5.77686H7.39795C7.70537 5.77686 7.95459 6.02608 7.95459 6.3335C7.95459 6.64091 7.70537 6.89014 7.39795 6.89014Z" fill="#4FC16E"/>
<path d="M7.39795 13.2231H4.76794C4.46053 13.2231 4.2113 12.9739 4.2113 12.6665C4.2113 12.3591 4.46053 12.1099 4.76794 12.1099H7.39795C7.70537 12.1099 7.95459 12.3591 7.95459 12.6665C7.95459 12.9739 7.70537 13.2231 7.39795 13.2231Z" fill="#4FC16E"/>
<path d="M7.39794 6.89014H6.08293V5.77686H7.39794C7.70535 5.77686 7.95458 6.02608 7.95458 6.3335C7.95458 6.64091 7.70535 6.89014 7.39794 6.89014Z" fill="#369151"/>
<path d="M7.39794 13.2236H6.08293V12.1104H7.39794C7.70535 12.1104 7.95458 12.3596 7.95458 12.667C7.95458 12.9744 7.70535 13.2236 7.39794 13.2236Z" fill="#369151"/>
</svg>
